<svg width="1020" height="539" viewBox="0 0 1020 539" fill="none" xmlns="http://www.w3.org/2000/svg">
<path d="M0 539L380 79C393.333 62.3333 406.667 62.3333 420 79L660 329L790 179C803.333 162.333 816.667 162.333 830 179L1020 539H960L800 399C786.667 385.667 773.333 385.667 760 399L680 479C666.667 492.333 653.333 492.333 640 479L380 279C366.667 265.667 353.333 265.667 340 279L60 539H0Z" fill="url(#paint0_linear_2_10)"/>
<path d="M640 9C640 -1 645 -2.66667 655 4L735 64C745 70.6667 745 77.3333 735 84L655 144C645 150.667 640 149 640 139V9Z" fill="url(#paint1_linear_2_10)"/>
<defs>
<linearGradient id="paint0_linear_2_10" x1="30" y1="109" x2="930" y2="509" gradientUnits="userSpaceOnUse">
<stop stop-color="#FF0055"/>
<stop offset="1" stop-color="#FF6A00"/>
</linearGradient>
<linearGradient id="paint1_linear_2_10" x1="30" y1="109" x2="930" y2="509" gradientUnits="userSpaceOnUse">
<stop stop-color="#FF0055"/>
<stop offset="1" stop-color="#FF6A00"/>
</linearGradient>
</defs>
</svg>
